<?xml version="1.0" standalone="no"?>
<!DOCTYPE svg PUBLIC "-//W3C//DTD SVG 20010904//EN"
 "http://www.w3.org/TR/2001/REC-SVG-20010904/DTD/svg10.dtd">
<svg version="1.0" xmlns="http://www.w3.org/2000/svg"
 width="270.000000pt" height="270.000000pt" viewBox="0 0 270.000000 270.000000"
 preserveAspectRatio="xMidYMid meet">
<metadata>
Created by potrace 1.11, written by Peter Selinger 2001-2013
</metadata>
<g transform="translate(0.000000,270.000000) scale(0.100000,-0.100000)"
fill="#000000" stroke="none">
<path d="M1238 2685 c-2 -2 -28 -6 -59 -9 -31 -4 -67 -9 -80 -11 -13 -3 -37
-8 -54 -11 -49 -8 -195 -60 -265 -93 -152 -71 -258 -147 -385 -276 -86 -87
-126 -139 -215 -275 -47 -73 -133 -303 -146 -389 -3 -20 -7 -42 -9 -49 -3 -7
-7 -40 -11 -73 -36 -341 54 -676 254 -946 289 -388 743 -588 1227 -539 294 30
578 168 795 386 198 199 316 416 371 682 59 288 15 606 -121 873 -130 255
-352 473 -605 595 -121 58 -251 101 -351 115 -21 4 -48 9 -59 12 -20 6 -281
13 -287 8z"/>
</g>
</svg>
