<svg width="214px" height="214px" viewBox="0 0 214 214" version="1.1" xmlns="http://www.w3.org/2000/svg" xmlns:xlink="http://www.w3.org/1999/xlink">
    <g id="Page-1" stroke="none" stroke-width="1" fill="none" fill-rule="evenodd">
        <g id="sketchgroup" fill-rule="nonzero">
            <path d="M0.432,107.264 C0.432,48.556 48.027,0.966 106.728,0.966 C165.438,0.966 213.032,48.556 213.032,107.264 C213.032,165.977 165.438,213.568 106.728,213.568 C48.027,213.568 0.432,165.977 0.432,107.264" id="Fill-4" fill="#F2F1F0"></path>
            <path d="M148.82,113.583 L148.82,81.63 L176.478,97.611 L148.82,113.583 Z M144.966,81.63 L144.966,116.92 C144.966,117.607 145.334,118.245 145.933,118.588 C146.228,118.769 146.559,118.845 146.889,118.845 C147.228,118.845 147.559,118.769 147.857,118.588 L178.407,100.942 L178.421,135.119 L115.363,171.529 L115.358,98.72 L144.966,81.63 Z M103.201,89.471 L50.39,58.978 L79.98,41.89 L143.04,78.297 L113.435,95.386 L103.201,89.471 Z M109.565,136.227 L81.908,152.201 L81.908,120.243 L109.565,136.227 Z M80.942,115.243 C80.354,114.904 79.614,114.904 79.018,115.243 C78.429,115.591 78.057,116.226 78.057,116.916 L78.057,152.201 L48.453,135.119 L48.46,62.311 L111.509,98.72 L111.495,132.895 L80.942,115.243 Z M184.429,97.608 C184.429,96.14 183.649,94.792 182.375,94.06 L82.031,36.117 C81.392,35.751 80.686,35.573 79.98,35.573 C79.274,35.573 78.568,35.751 77.934,36.117 L44.605,55.361 C43.279,56.066 42.436,57.449 42.436,58.973 L42.424,136.23 C42.424,137.69 43.203,139.049 44.479,139.778 L77.934,159.093 C78.568,159.455 79.274,159.635 79.98,159.635 C80.686,159.635 81.392,159.455 82.031,159.093 L109.325,143.326 L109.344,174.87 C109.344,176.327 110.12,177.681 111.396,178.414 C112.028,178.779 112.732,178.957 113.438,178.957 C114.151,178.957 114.851,178.779 115.489,178.414 L182.393,139.778 C183.658,139.049 184.444,137.69 184.444,136.227 L184.429,97.608 L184.429,97.608 Z" id="Fill-5" fill="#343534"></path>
        </g>
    </g>
</svg>
