<svg xmlns="http://www.w3.org/2000/svg" viewBox="0 0 100 100"><path fill="currentColor" d="M81.3 22.9c.3-.4.2-1.1-.2-1.4-.4-.3-1.1-.2-1.4.2l-3.6 5 1.3-11.1c.1-.5-.3-1-.9-1.1-.6-.1-1 .3-1.1.9L74 27.5c-.4-.2-.8-.4-1.3-.6-2.6-1-5.3-.6-7.1 1-2.5 2.2-5.2 6.4-6.9 9.1-.2-1.2-.6-2.3-1.1-3.3-1.2-1.9-3-2.9-5.5-3.1-2.6-.2-4.5.5-5.8 2-.8.9-1.2 2.1-1.4 3.2-1-.9-2.5-1.6-4.6-1.9-1.9-.3-3.5.1-4.7 1.3-1.4 1.3-2 3.4-2.2 5-.5-.4-1.2-.7-2-.8-1.6-.2-3.3.8-4.8 2.8-1.7 2.2-2.3 4.3-1.7 6.3.4 1.3 1.3 2.4 2.2 3.2h-6.6c-.3 0-.5.1-.7.3-.2.2-.3.5-.3.7.4 12.6 6.2 21 17.2 24.9 0 0 0 .1-.1.1l-1.3 6.6c-.1.3 0 .6.2.8.2.2.5.4.8.4h28c.3 0 .6-.1.8-.4.2-.2.3-.5.2-.8L64 77.7v-.1c8.5-3.1 16.7-9.9 17.2-24.9 0-.3-.1-.5-.3-.7-.2-.2-.4-.3-.7-.3H69.5c1.8-2 9.8-10.9 9.1-16.9-.2-2-1-3.8-2.3-5.2l5-6.7zm-54.6 25c-.4-1.3.1-2.9 1.4-4.5.8-1 1.9-2.1 3-2 1.1.1 2 1.4 2.2 1.9.2.4.7.7 1.2.5.5-.1.8-.6.7-1-.1-1.2 0-4.6 1.6-6.1.7-.7 1.7-.9 3.1-.7 3.1.5 4.3 1.8 4.9 3 .1 1.2.3 2.1.4 2.2.1.5.6.8 1 .7.5 0 .9-.4.9-.9 0 0 .1-1.1-.4-2.4-.1-1.5 0-3.4 1-4.7.8-1 2.2-1.4 4.1-1.3 1.8.1 3.1.9 4 2.2 2.9 4.8-1.1 15.4-1.7 16.9h-4.9l1.2-7.4c.1-.5-.3-1.1-.8-1.2-.5-.1-1.1.3-1.2.8l-1.3 7.7h-6.3l-3.2-5.1c-.3-.5-.9-.6-1.4-.3-.5.3-.6.9-.3 1.4l2.5 4.1h-7.7c-.6-.3-3.4-1.6-4-3.8zM63 83.5H37.4l1.1-5.3c2.9.9 6.1 1.4 9.7 1.7 0 0 .9.1 2.1.1.6 0 1.3 0 1.9-.1 2.9-.2 6.3-.6 9.7-1.7l1.1 5.3zm-10.9-5.6c-1.9.1-3.8 0-3.8 0-16.9-1.4-26-9.6-26.9-24.3H79c-1.2 18.8-15.2 23.6-26.9 24.3zm18.2-30.2C69 46.4 66.6 45 65 44.2c-.5-.3-1.1-.1-1.3.4-.3.5-.1 1.1.4 1.3 2.3 1.2 4.5 2.7 5 3.3-.5.6-.9 1-1.3 1.4-.3.3-.3.7-.2 1H56.2c.7-2 2.3-6.6 2.5-11.1 0-.1.1-.1.1-.2 0 0 1.4-2.5 3.2-5.2 4-.2 7.4 4 7.4 4 .2.2.5.4.8.4.2 0 .4-.1.6-.2.4-.3.5-1 .1-1.4-.2-.2-3.4-4.1-7.6-4.7 1.1-1.5 2.3-3 3.4-3.9 1.2-1.1 3.1-1.4 5-.6 2 .8 4.5 2.9 4.8 6.2.6 3.6-3.2 9.2-6.2 12.8z"/></svg>
