<svg width="63" height="72" viewBox="0 0 63 72" focusable="false" aria-label="Sofrito" xmlns="http://www.w3.org/2000/svg">
    <path fill="currentColor" d="M62.3,8.9 C62.6,8.5 62.5,7.8 62.1,7.5 C61.7,7.2 61,7.3 60.7,7.7 L57.1,12.7 L58.4,1.6 C58.5,1.1 58.1,0.6 57.5,0.5 C56.9,0.4 56.5,0.8 56.4,1.4 L55,13.5 C54.6,13.3 54.2,13.1 53.7,12.9 C51.1,11.9 48.4,12.3 46.6,13.9 C44.1,16.1 41.4,20.3 39.7,23 C39.5,21.8 39.1,20.7 38.6,19.7 C37.4,17.8 35.6,16.8 33.1,16.6 C30.5,16.4 28.6,17.1 27.3,18.6 C26.5,19.5 26.1,20.7 25.9,21.8 C24.9,20.9 23.4,20.2 21.3,19.9 C19.4,19.6 17.8,20 16.6,21.2 C15.2,22.5 14.6,24.6 14.4,26.2 C13.9,25.8 13.2,25.5 12.4,25.4 C10.8,25.2 9.1,26.2 7.6,28.2 C5.9,30.4 5.3,32.5 5.9,34.5 C6.3,35.8 7.2,36.9 8.1,37.7 L1.5,37.7 C1.2,37.7 1,37.8 0.8,38 C0.6,38.2 0.5,38.5 0.5,38.7 C0.9,51.3 6.7,59.7 17.7,63.6 C17.7,63.6 17.7,63.7 17.6,63.7 L16.3,70.3 C16.2,70.6 16.3,70.9 16.5,71.1 C16.7,71.3 17,71.5 17.3,71.5 L45.3,71.5 C45.6,71.5 45.9,71.4 46.1,71.1 C46.3,70.9 46.4,70.6 46.3,70.3 L45,63.7 L45,63.6 C53.5,60.5 61.7,53.7 62.2,38.7 C62.2,38.4 62.1,38.2 61.9,38 C61.7,37.8 61.5,37.7 61.2,37.7 L50.5,37.7 C52.3,35.7 60.3,26.8 59.6,20.8 C59.4,18.8 58.6,17 57.3,15.6 L62.3,8.9 Z M7.7,33.9 C7.3,32.6 7.8,31 9.1,29.4 C9.9,28.4 11,27.3 12.1,27.4 C13.2,27.5 14.1,28.8 14.3,29.3 C14.5,29.7 15,30 15.5,29.8 C16,29.7 16.3,29.2 16.2,28.8 C16.1,27.6 16.2,24.2 17.8,22.7 C18.5,22 19.5,21.8 20.9,22 C24,22.5 25.2,23.8 25.8,25 C25.9,26.2 26.1,27.1 26.2,27.2 C26.3,27.7 26.8,28 27.2,27.9 C27.7,27.9 28.1,27.5 28.1,27 C28.1,27 28.2,25.9 27.7,24.6 C27.6,23.1 27.7,21.2 28.7,19.9 C29.5,18.9 30.9,18.5 32.8,18.6 C34.6,18.7 35.9,19.5 36.8,20.8 C39.7,25.6 35.7,36.2 35.1,37.7 L30.2,37.7 L31.4,30.3 C31.5,29.8 31.1,29.2 30.6,29.1 C30.1,29 29.5,29.4 29.4,29.9 L28.1,37.6 L21.8,37.6 L18.6,32.5 C18.3,32 17.7,31.9 17.2,32.2 C16.7,32.5 16.6,33.1 16.9,33.6 L19.4,37.7 L11.7,37.7 C11.1,37.4 8.3,36.1 7.7,33.9 L7.7,33.9 Z M44,69.5 L18.4,69.5 L19.5,64.2 C22.4,65.1 25.6,65.6 29.2,65.9 C29.2,65.9 30.1,66 31.3,66 C31.9,66 32.6,66 33.2,65.9 C36.1,65.7 39.5,65.3 42.9,64.2 L44,69.5 L44,69.5 Z M33.1,63.9 C31.2,64 29.3,63.9 29.3,63.9 C12.4,62.5 3.3,54.3 2.4,39.6 L60,39.6 C58.8,58.4 44.8,63.2 33.1,63.9 Z M51.3,33.7 C50,32.4 47.6,31 46,30.2 C45.5,29.9 44.9,30.1 44.7,30.6 C44.4,31.1 44.6,31.7 45.1,31.9 C47.4,33.1 49.6,34.6 50.1,35.2 C49.6,35.8 49.2,36.2 48.8,36.6 C48.5,36.9 48.5,37.3 48.6,37.6 L37.2,37.6 C37.9,35.6 39.5,31 39.7,26.5 C39.7,26.4 39.8,26.4 39.8,26.3 C39.8,26.3 41.2,23.8 43,21.1 C47,20.9 50.4,25.1 50.4,25.1 C50.6,25.3 50.9,25.5 51.2,25.5 C51.4,25.5 51.6,25.4 51.8,25.3 C52.2,25 52.3,24.3 51.9,23.9 C51.7,23.7 48.5,19.8 44.3,19.2 C45.4,17.7 46.6,16.2 47.7,15.3 C48.9,14.2 50.8,13.9 52.7,14.7 C54.7,15.5 57.2,17.6 57.5,20.9 C58.1,24.5 54.3,30.1 51.3,33.7 L51.3,33.7 Z"></path>
</svg>
